<svg width="25" height="25" viewBox="0 0 25 25" fill="none" xmlns="http://www.w3.org/2000/svg">
<path d="M12.5 22.9166C11.059 22.9166 9.70486 22.6431 8.43749 22.0963C7.17013 21.5494 6.0677 20.8072 5.1302 19.8697C4.1927 18.9322 3.45052 17.8298 2.90364 16.5624C2.35677 15.2951 2.08333 13.9409 2.08333 12.4999C2.08333 11.0589 2.35677 9.70478 2.90364 8.43742C3.45052 7.17006 4.1927 6.06763 5.1302 5.13013C6.0677 4.19263 7.17013 3.45044 8.43749 2.90356C9.70486 2.35669 11.059 2.08325 12.5 2.08325C13.941 2.08325 15.2951 2.35669 16.5625 2.90356C17.8299 3.45044 18.9323 4.19263 19.8698 5.13013C20.8073 6.06763 21.5495 7.17006 22.0963 8.43742C22.6432 9.70478 22.9167 11.0589 22.9167 12.4999V14.0103C22.9167 15.0346 22.5651 15.907 21.862 16.6275C21.1588 17.348 20.2951 17.7083 19.2708 17.7083C18.6632 17.7083 18.0903 17.578 17.5521 17.3176C17.0139 17.0572 16.5625 16.6839 16.1979 16.1978C15.6944 16.7013 15.1259 17.0789 14.4922 17.3306C13.8585 17.5824 13.1944 17.7083 12.5 17.7083C11.059 17.7083 9.83072 17.2004 8.8151 16.1848C7.79947 15.1692 7.29166 13.9409 7.29166 12.4999C7.29166 11.0589 7.79947 9.83065 8.8151 8.81502C9.83072 7.7994 11.059 7.29159 12.5 7.29159C13.941 7.29159 15.1693 7.7994 16.1849 8.81502C17.2005 9.83065 17.7083 11.0589 17.7083 12.4999V14.0103C17.7083 14.4617 17.8559 14.8437 18.151 15.1562C18.4462 15.4687 18.8194 15.6249 19.2708 15.6249C19.7222 15.6249 20.0955 15.4687 20.3906 15.1562C20.6858 14.8437 20.8333 14.4617 20.8333 14.0103V12.4999C20.8333 10.1735 20.026 8.20304 18.4115 6.58846C16.7969 4.97388 14.8264 4.16659 12.5 4.16659C10.1736 4.16659 8.20312 4.97388 6.58854 6.58846C4.97395 8.20304 4.16666 10.1735 4.16666 12.4999C4.16666 14.8263 4.97395 16.7968 6.58854 18.4114C8.20312 20.026 10.1736 20.8333 12.5 20.8333H17.7083V22.9166H12.5ZM12.5 15.6249C13.368 15.6249 14.1059 15.3211 14.7135 14.7135C15.3212 14.1058 15.625 13.368 15.625 12.4999C15.625 11.6319 15.3212 10.894 14.7135 10.2864C14.1059 9.67874 13.368 9.37492 12.5 9.37492C11.6319 9.37492 10.8941 9.67874 10.2865 10.2864C9.67881 10.894 9.37499 11.6319 9.37499 12.4999C9.37499 13.368 9.67881 14.1058 10.2865 14.7135C10.8941 15.3211 11.6319 15.6249 12.5 15.6249Z" fill="black"/>
</svg>
